solid color_sample_car_demo
  facet normal 1.000000 0.000000 0.000000
    outer loop
      vertex 0.600000 -0.250000 0.010000
      vertex 0.600000 0.250000 0.010000
      vertex 0.600000 0.250000 0.230000
    endloop
  endfacet
  facet normal 1.000000 0.000000 0.000000
    outer loop
      vertex 0.600000 -0.250000 0.010000
      vertex 0.600000 0.250000 0.230000
      vertex 0.600000 -0.250000 0.230000
    endloop
  endfacet
  facet normal -1.000000 0.000000 0.000000
    outer loop
      vertex -0.600000 0.250000 0.010000
      vertex -0.600000 -0.250000 0.010000
      vertex -0.600000 -0.250000 0.230000
    endloop
  endfacet
  facet normal -1.000000 0.000000 0.000000
    outer loop
      vertex -0.600000 0.250000 0.010000
      vertex -0.600000 -0.250000 0.230000
      vertex -0.600000 0.250000 0.230000
    endloop
  endfacet
  facet normal 0.000000 -1.000000 0.000000
    outer loop
      vertex -0.600000 0.250000 0.010000
      vertex 0.600000 0.250000 0.010000
      vertex 0.600000 0.250000 0.230000
    endloop
  endfacet
  facet normal 0.000000 -1.000000 0.000000
    outer loop
      vertex -0.600000 0.250000 0.010000
      vertex 0.600000 0.250000 0.230000
      vertex -0.600000 0.250000 0.230000
    endloop
  endfacet
  facet normal 0.000000 1.000000 0.000000
    outer loop
      vertex 0.600000 -0.250000 0.010000
      vertex -0.600000 -0.250000 0.010000
      vertex -0.600000 -0.250000 0.230000
    endloop
  endfacet
  facet normal 0.000000 1.000000 0.000000
    outer loop
      vertex 0.600000 -0.250000 0.010000
      vertex -0.600000 -0.250000 0.230000
      vertex 0.600000 -0.250000 0.230000
    endloop
  endfacet
  facet normal 0.000000 0.000000 1.000000
    outer loop
      vertex -0.600000 -0.250000 0.230000
      vertex 0.600000 -0.250000 0.230000
      vertex 0.600000 0.250000 0.230000
    endloop
  endfacet
  facet normal 0.000000 0.000000 1.000000
    outer loop
      vertex -0.600000 -0.250000 0.230000
      vertex 0.600000 0.250000 0.230000
      vertex -0.600000 0.250000 0.230000
    endloop
  endfacet
  facet normal 0.000000 0.000000 -1.000000
    outer loop
      vertex -0.600000 0.250000 0.010000
      vertex 0.600000 0.250000 0.010000
      vertex 0.600000 -0.250000 0.010000
    endloop
  endfacet
  facet normal 0.000000 0.000000 -1.000000
    outer loop
      vertex -0.600000 0.250000 0.010000
      vertex 0.600000 -0.250000 0.010000
      vertex -0.600000 -0.250000 0.010000
    endloop
  endfacet
  facet normal 1.000000 0.000000 0.000000
    outer loop
      vertex 0.180000 -0.210000 0.210000
      vertex 0.180000 0.210000 0.210000
      vertex 0.180000 0.210000 0.470000
    endloop
  endfacet
  facet normal 1.000000 0.000000 0.000000
    outer loop
      vertex 0.180000 -0.210000 0.210000
      vertex 0.180000 0.210000 0.470000
      vertex 0.180000 -0.210000 0.470000
    endloop
  endfacet
  facet normal -1.000000 0.000000 0.000000
    outer loop
      vertex -0.340000 0.210000 0.210000
      vertex -0.340000 -0.210000 0.210000
      vertex -0.340000 -0.210000 0.470000
    endloop
  endfacet
  facet normal -1.000000 0.000000 0.000000
    outer loop
      vertex -0.340000 0.210000 0.210000
      vertex -0.340000 -0.210000 0.470000
      vertex -0.340000 0.210000 0.470000
    endloop
  endfacet
  facet normal 0.000000 -1.000000 0.000000
    outer loop
      vertex -0.340000 0.210000 0.210000
      vertex 0.180000 0.210000 0.210000
      vertex 0.180000 0.210000 0.470000
    endloop
  endfacet
  facet normal 0.000000 -1.000000 0.000000
    outer loop
      vertex -0.340000 0.210000 0.210000
      vertex 0.180000 0.210000 0.470000
      vertex -0.340000 0.210000 0.470000
    endloop
  endfacet
  facet normal 0.000000 1.000000 0.000000
    outer loop
      vertex 0.180000 -0.210000 0.210000
      vertex -0.340000 -0.210000 0.210000
      vertex -0.340000 -0.210000 0.470000
    endloop
  endfacet
  facet normal 0.000000 1.000000 0.000000
    outer loop
      vertex 0.180000 -0.210000 0.210000
      vertex -0.340000 -0.210000 0.470000
      vertex 0.180000 -0.210000 0.470000
    endloop
  endfacet
  facet normal 0.000000 0.000000 1.000000
    outer loop
      vertex -0.340000 -0.210000 0.470000
      vertex 0.180000 -0.210000 0.470000
      vertex 0.180000 0.210000 0.470000
    endloop
  endfacet
  facet normal 0.000000 0.000000 1.000000
    outer loop
      vertex -0.340000 -0.210000 0.470000
      vertex 0.180000 0.210000 0.470000
      vertex -0.340000 0.210000 0.470000
    endloop
  endfacet
  facet normal 0.000000 0.000000 -1.000000
    outer loop
      vertex -0.340000 0.210000 0.210000
      vertex 0.180000 0.210000 0.210000
      vertex 0.180000 -0.210000 0.210000
    endloop
  endfacet
  facet normal 0.000000 0.000000 -1.000000
    outer loop
      vertex -0.340000 0.210000 0.210000
      vertex 0.180000 -0.210000 0.210000
      vertex -0.340000 -0.210000 0.210000
    endloop
  endfacet
  facet normal 0.000000 0.991445 0.130526
    outer loop
      vertex -0.460000 -0.180000 0.020000
      vertex -0.460000 -0.184770 0.056235
      vertex -0.300000 -0.184770 0.056235
    endloop
  endfacet
  facet normal 0.000000 0.991445 0.130526
    outer loop
      vertex -0.460000 -0.180000 0.020000
      vertex -0.300000 -0.184770 0.056235
      vertex -0.300000 -0.180000 0.020000
    endloop
  endfacet
  facet normal 0.000000 0.923880 0.382683
    outer loop
      vertex -0.460000 -0.184770 0.056235
      vertex -0.460000 -0.198756 0.090000
      vertex -0.300000 -0.198756 0.090000
    endloop
  endfacet
  facet normal 0.000000 0.923880 0.382683
    outer loop
      vertex -0.460000 -0.184770 0.056235
      vertex -0.300000 -0.198756 0.090000
      vertex -0.300000 -0.184770 0.056235
    endloop
  endfacet
  facet normal 0.000000 0.793353 0.608761
    outer loop
      vertex -0.460000 -0.198756 0.090000
      vertex -0.460000 -0.221005 0.118995
      vertex -0.300000 -0.221005 0.118995
    endloop
  endfacet
  facet normal 0.000000 0.793353 0.608761
    outer loop
      vertex -0.460000 -0.198756 0.090000
      vertex -0.300000 -0.221005 0.118995
      vertex -0.300000 -0.198756 0.090000
    endloop
  endfacet
  facet normal 0.000000 0.608761 0.793353
    outer loop
      vertex -0.460000 -0.221005 0.118995
      vertex -0.460000 -0.250000 0.141244
      vertex -0.300000 -0.250000 0.141244
    endloop
  endfacet
  facet normal 0.000000 0.608761 0.793353
    outer loop
      vertex -0.460000 -0.221005 0.118995
      vertex -0.300000 -0.250000 0.141244
      vertex -0.300000 -0.221005 0.118995
    endloop
  endfacet
  facet normal 0.000000 0.382683 0.923880
    outer loop
      vertex -0.460000 -0.250000 0.141244
      vertex -0.460000 -0.283765 0.155230
      vertex -0.300000 -0.283765 0.155230
    endloop
  endfacet
  facet normal 0.000000 0.382683 0.923880
    outer loop
      vertex -0.460000 -0.250000 0.141244
      vertex -0.300000 -0.283765 0.155230
      vertex -0.300000 -0.250000 0.141244
    endloop
  endfacet
  facet normal 0.000000 0.130526 0.991445
    outer loop
      vertex -0.460000 -0.283765 0.155230
      vertex -0.460000 -0.320000 0.160000
      vertex -0.300000 -0.320000 0.160000
    endloop
  endfacet
  facet normal 0.000000 0.130526 0.991445
    outer loop
      vertex -0.460000 -0.283765 0.155230
      vertex -0.300000 -0.320000 0.160000
      vertex -0.300000 -0.283765 0.155230
    endloop
  endfacet
  facet normal 0.000000 -0.130526 0.991445
    outer loop
      vertex -0.460000 -0.320000 0.160000
      vertex -0.460000 -0.356235 0.155230
      vertex -0.300000 -0.356235 0.155230
    endloop
  endfacet
  facet normal 0.000000 -0.130526 0.991445
    outer loop
      vertex -0.460000 -0.320000 0.160000
      vertex -0.300000 -0.356235 0.155230
      vertex -0.300000 -0.320000 0.160000
    endloop
  endfacet
  facet normal 0.000000 -0.382683 0.923880
    outer loop
      vertex -0.460000 -0.356235 0.155230
      vertex -0.460000 -0.390000 0.141244
      vertex -0.300000 -0.390000 0.141244
    endloop
  endfacet
  facet normal 0.000000 -0.382683 0.923880
    outer loop
      vertex -0.460000 -0.356235 0.155230
      vertex -0.300000 -0.390000 0.141244
      vertex -0.300000 -0.356235 0.155230
    endloop
  endfacet
  facet normal 0.000000 -0.608761 0.793353
    outer loop
      vertex -0.460000 -0.390000 0.141244
      vertex -0.460000 -0.418995 0.118995
      vertex -0.300000 -0.418995 0.118995
    endloop
  endfacet
  facet normal 0.000000 -0.608761 0.793353
    outer loop
      vertex -0.460000 -0.390000 0.141244
      vertex -0.300000 -0.418995 0.118995
      vertex -0.300000 -0.390000 0.141244
    endloop
  endfacet
  facet normal 0.000000 -0.793353 0.608761
    outer loop
      vertex -0.460000 -0.418995 0.118995
      vertex -0.460000 -0.441244 0.090000
      vertex -0.300000 -0.441244 0.090000
    endloop
  endfacet
  facet normal 0.000000 -0.793353 0.608761
    outer loop
      vertex -0.460000 -0.418995 0.118995
      vertex -0.300000 -0.441244 0.090000
      vertex -0.300000 -0.418995 0.118995
    endloop
  endfacet
  facet normal 0.000000 -0.923880 0.382683
    outer loop
      vertex -0.460000 -0.441244 0.090000
      vertex -0.460000 -0.455230 0.056235
      vertex -0.300000 -0.455230 0.056235
    endloop
  endfacet
  facet normal 0.000000 -0.923880 0.382683
    outer loop
      vertex -0.460000 -0.441244 0.090000
      vertex -0.300000 -0.455230 0.056235
      vertex -0.300000 -0.441244 0.090000
    endloop
  endfacet
  facet normal 0.000000 -0.991445 0.130526
    outer loop
      vertex -0.460000 -0.455230 0.056235
      vertex -0.460000 -0.460000 0.020000
      vertex -0.300000 -0.460000 0.020000
    endloop
  endfacet
  facet normal 0.000000 -0.991445 0.130526
    outer loop
      vertex -0.460000 -0.455230 0.056235
      vertex -0.300000 -0.460000 0.020000
      vertex -0.300000 -0.455230 0.056235
    endloop
  endfacet
  facet normal 0.000000 -0.991445 -0.130526
    outer loop
      vertex -0.460000 -0.460000 0.020000
      vertex -0.460000 -0.455230 -0.016235
      vertex -0.300000 -0.455230 -0.016235
    endloop
  endfacet
  facet normal 0.000000 -0.991445 -0.130526
    outer loop
      vertex -0.460000 -0.460000 0.020000
      vertex -0.300000 -0.455230 -0.016235
      vertex -0.300000 -0.460000 0.020000
    endloop
  endfacet
  facet normal 0.000000 -0.923880 -0.382683
    outer loop
      vertex -0.460000 -0.455230 -0.016235
      vertex -0.460000 -0.441244 -0.050000
      vertex -0.300000 -0.441244 -0.050000
    endloop
  endfacet
  facet normal 0.000000 -0.923880 -0.382683
    outer loop
      vertex -0.460000 -0.455230 -0.016235
      vertex -0.300000 -0.441244 -0.050000
      vertex -0.300000 -0.455230 -0.016235
    endloop
  endfacet
  facet normal 0.000000 -0.793353 -0.608761
    outer loop
      vertex -0.460000 -0.441244 -0.050000
      vertex -0.460000 -0.418995 -0.078995
      vertex -0.300000 -0.418995 -0.078995
    endloop
  endfacet
  facet normal 0.000000 -0.793353 -0.608761
    outer loop
      vertex -0.460000 -0.441244 -0.050000
      vertex -0.300000 -0.418995 -0.078995
      vertex -0.300000 -0.441244 -0.050000
    endloop
  endfacet
  facet normal 0.000000 -0.608761 -0.793353
    outer loop
      vertex -0.460000 -0.418995 -0.078995
      vertex -0.460000 -0.390000 -0.101244
      vertex -0.300000 -0.390000 -0.101244
    endloop
  endfacet
  facet normal 0.000000 -0.608761 -0.793353
    outer loop
      vertex -0.460000 -0.418995 -0.078995
      vertex -0.300000 -0.390000 -0.101244
      vertex -0.300000 -0.418995 -0.078995
    endloop
  endfacet
  facet normal 0.000000 -0.382683 -0.923880
    outer loop
      vertex -0.460000 -0.390000 -0.101244
      vertex -0.460000 -0.356235 -0.115230
      vertex -0.300000 -0.356235 -0.115230
    endloop
  endfacet
  facet normal 0.000000 -0.382683 -0.923880
    outer loop
      vertex -0.460000 -0.390000 -0.101244
      vertex -0.300000 -0.356235 -0.115230
      vertex -0.300000 -0.390000 -0.101244
    endloop
  endfacet
  facet normal 0.000000 -0.130526 -0.991445
    outer loop
      vertex -0.460000 -0.356235 -0.115230
      vertex -0.460000 -0.320000 -0.120000
      vertex -0.300000 -0.320000 -0.120000
    endloop
  endfacet
  facet normal 0.000000 -0.130526 -0.991445
    outer loop
      vertex -0.460000 -0.356235 -0.115230
      vertex -0.300000 -0.320000 -0.120000
      vertex -0.300000 -0.356235 -0.115230
    endloop
  endfacet
  facet normal 0.000000 0.130526 -0.991445
    outer loop
      vertex -0.460000 -0.320000 -0.120000
      vertex -0.460000 -0.283765 -0.115230
      vertex -0.300000 -0.283765 -0.115230
    endloop
  endfacet
  facet normal 0.000000 0.130526 -0.991445
    outer loop
      vertex -0.460000 -0.320000 -0.120000
      vertex -0.300000 -0.283765 -0.115230
      vertex -0.300000 -0.320000 -0.120000
    endloop
  endfacet
  facet normal 0.000000 0.382683 -0.923880
    outer loop
      vertex -0.460000 -0.283765 -0.115230
      vertex -0.460000 -0.250000 -0.101244
      vertex -0.300000 -0.250000 -0.101244
    endloop
  endfacet
  facet normal 0.000000 0.382683 -0.923880
    outer loop
      vertex -0.460000 -0.283765 -0.115230
      vertex -0.300000 -0.250000 -0.101244
      vertex -0.300000 -0.283765 -0.115230
    endloop
  endfacet
  facet normal 0.000000 0.608761 -0.793353
    outer loop
      vertex -0.460000 -0.250000 -0.101244
      vertex -0.460000 -0.221005 -0.078995
      vertex -0.300000 -0.221005 -0.078995
    endloop
  endfacet
  facet normal 0.000000 0.608761 -0.793353
    outer loop
      vertex -0.460000 -0.250000 -0.101244
      vertex -0.300000 -0.221005 -0.078995
      vertex -0.300000 -0.250000 -0.101244
    endloop
  endfacet
  facet normal 0.000000 0.793353 -0.608761
    outer loop
      vertex -0.460000 -0.221005 -0.078995
      vertex -0.460000 -0.198756 -0.050000
      vertex -0.300000 -0.198756 -0.050000
    endloop
  endfacet
  facet normal 0.000000 0.793353 -0.608761
    outer loop
      vertex -0.460000 -0.221005 -0.078995
      vertex -0.300000 -0.198756 -0.050000
      vertex -0.300000 -0.221005 -0.078995
    endloop
  endfacet
  facet normal 0.000000 0.923880 -0.382683
    outer loop
      vertex -0.460000 -0.198756 -0.050000
      vertex -0.460000 -0.184770 -0.016235
      vertex -0.300000 -0.184770 -0.016235
    endloop
  endfacet
  facet normal 0.000000 0.923880 -0.382683
    outer loop
      vertex -0.460000 -0.198756 -0.050000
      vertex -0.300000 -0.184770 -0.016235
      vertex -0.300000 -0.198756 -0.050000
    endloop
  endfacet
  facet normal 0.000000 0.991445 -0.130526
    outer loop
      vertex -0.460000 -0.184770 -0.016235
      vertex -0.460000 -0.180000 0.020000
      vertex -0.300000 -0.180000 0.020000
    endloop
  endfacet
  facet normal 0.000000 0.991445 -0.130526
    outer loop
      vertex -0.460000 -0.184770 -0.016235
      vertex -0.300000 -0.180000 0.020000
      vertex -0.300000 -0.184770 -0.016235
    endloop
  endfacet
  facet normal 1.000000 0.000000 0.000000
    outer loop
      vertex -0.300000 -0.320000 0.020000
      vertex -0.300000 -0.180000 0.020000
      vertex -0.300000 -0.184770 0.056235
    endloop
  endfacet
  facet normal 1.000000 0.000000 0.000000
    outer loop
      vertex -0.300000 -0.320000 0.020000
      vertex -0.300000 -0.184770 0.056235
      vertex -0.300000 -0.198756 0.090000
    endloop
  endfacet
  facet normal 1.000000 0.000000 0.000000
    outer loop
      vertex -0.300000 -0.320000 0.020000
      vertex -0.300000 -0.198756 0.090000
      vertex -0.300000 -0.221005 0.118995
    endloop
  endfacet
  facet normal 1.000000 0.000000 0.000000
    outer loop
      vertex -0.300000 -0.320000 0.020000
      vertex -0.300000 -0.221005 0.118995
      vertex -0.300000 -0.250000 0.141244
    endloop
  endfacet
  facet normal 1.000000 0.000000 0.000000
    outer loop
      vertex -0.300000 -0.320000 0.020000
      vertex -0.300000 -0.250000 0.141244
      vertex -0.300000 -0.283765 0.155230
    endloop
  endfacet
  facet normal 1.000000 0.000000 0.000000
    outer loop
      vertex -0.300000 -0.320000 0.020000
      vertex -0.300000 -0.283765 0.155230
      vertex -0.300000 -0.320000 0.160000
    endloop
  endfacet
  facet normal 1.000000 0.000000 0.000000
    outer loop
      vertex -0.300000 -0.320000 0.020000
      vertex -0.300000 -0.320000 0.160000
      vertex -0.300000 -0.356235 0.155230
    endloop
  endfacet
  facet normal 1.000000 0.000000 0.000000
    outer loop
      vertex -0.300000 -0.320000 0.020000
      vertex -0.300000 -0.356235 0.155230
      vertex -0.300000 -0.390000 0.141244
    endloop
  endfacet
  facet normal 1.000000 0.000000 0.000000
    outer loop
      vertex -0.300000 -0.320000 0.020000
      vertex -0.300000 -0.390000 0.141244
      vertex -0.300000 -0.418995 0.118995
    endloop
  endfacet
  facet normal 1.000000 0.000000 0.000000
    outer loop
      vertex -0.300000 -0.320000 0.020000
      vertex -0.300000 -0.418995 0.118995
      vertex -0.300000 -0.441244 0.090000
    endloop
  endfacet
  facet normal 1.000000 0.000000 0.000000
    outer loop
      vertex -0.300000 -0.320000 0.020000
      vertex -0.300000 -0.441244 0.090000
      vertex -0.300000 -0.455230 0.056235
    endloop
  endfacet
  facet normal 1.000000 0.000000 0.000000
    outer loop
      vertex -0.300000 -0.320000 0.020000
      vertex -0.300000 -0.455230 0.056235
      vertex -0.300000 -0.460000 0.020000
    endloop
  endfacet
  facet normal 1.000000 0.000000 0.000000
    outer loop
      vertex -0.300000 -0.320000 0.020000
      vertex -0.300000 -0.460000 0.020000
      vertex -0.300000 -0.455230 -0.016235
    endloop
  endfacet
  facet normal 1.000000 0.000000 0.000000
    outer loop
      vertex -0.300000 -0.320000 0.020000
      vertex -0.300000 -0.455230 -0.016235
      vertex -0.300000 -0.441244 -0.050000
    endloop
  endfacet
  facet normal 1.000000 0.000000 0.000000
    outer loop
      vertex -0.300000 -0.320000 0.020000
      vertex -0.300000 -0.441244 -0.050000
      vertex -0.300000 -0.418995 -0.078995
    endloop
  endfacet
  facet normal 1.000000 0.000000 0.000000
    outer loop
      vertex -0.300000 -0.320000 0.020000
      vertex -0.300000 -0.418995 -0.078995
      vertex -0.300000 -0.390000 -0.101244
    endloop
  endfacet
  facet normal 1.000000 0.000000 0.000000
    outer loop
      vertex -0.300000 -0.320000 0.020000
      vertex -0.300000 -0.390000 -0.101244
      vertex -0.300000 -0.356235 -0.115230
    endloop
  endfacet
  facet normal 1.000000 0.000000 0.000000
    outer loop
      vertex -0.300000 -0.320000 0.020000
      vertex -0.300000 -0.356235 -0.115230
      vertex -0.300000 -0.320000 -0.120000
    endloop
  endfacet
  facet normal 1.000000 0.000000 0.000000
    outer loop
      vertex -0.300000 -0.320000 0.020000
      vertex -0.300000 -0.320000 -0.120000
      vertex -0.300000 -0.283765 -0.115230
    endloop
  endfacet
  facet normal 1.000000 0.000000 0.000000
    outer loop
      vertex -0.300000 -0.320000 0.020000
      vertex -0.300000 -0.283765 -0.115230
      vertex -0.300000 -0.250000 -0.101244
    endloop
  endfacet
  facet normal 1.000000 0.000000 0.000000
    outer loop
      vertex -0.300000 -0.320000 0.020000
      vertex -0.300000 -0.250000 -0.101244
      vertex -0.300000 -0.221005 -0.078995
    endloop
  endfacet
  facet normal 1.000000 0.000000 0.000000
    outer loop
      vertex -0.300000 -0.320000 0.020000
      vertex -0.300000 -0.221005 -0.078995
      vertex -0.300000 -0.198756 -0.050000
    endloop
  endfacet
  facet normal 1.000000 0.000000 0.000000
    outer loop
      vertex -0.300000 -0.320000 0.020000
      vertex -0.300000 -0.198756 -0.050000
      vertex -0.300000 -0.184770 -0.016235
    endloop
  endfacet
  facet normal 1.000000 0.000000 0.000000
    outer loop
      vertex -0.300000 -0.320000 0.020000
      vertex -0.300000 -0.184770 -0.016235
      vertex -0.300000 -0.180000 0.020000
    endloop
  endfacet
  facet normal -1.000000 0.000000 0.000000
    outer loop
      vertex -0.460000 -0.320000 0.020000
      vertex -0.460000 -0.184770 0.056235
      vertex -0.460000 -0.180000 0.020000
    endloop
  endfacet
  facet normal -1.000000 0.000000 0.000000
    outer loop
      vertex -0.460000 -0.320000 0.020000
      vertex -0.460000 -0.198756 0.090000
      vertex -0.460000 -0.184770 0.056235
    endloop
  endfacet
  facet normal -1.000000 0.000000 0.000000
    outer loop
      vertex -0.460000 -0.320000 0.020000
      vertex -0.460000 -0.221005 0.118995
      vertex -0.460000 -0.198756 0.090000
    endloop
  endfacet
  facet normal -1.000000 0.000000 0.000000
    outer loop
      vertex -0.460000 -0.320000 0.020000
      vertex -0.460000 -0.250000 0.141244
      vertex -0.460000 -0.221005 0.118995
    endloop
  endfacet
  facet normal -1.000000 0.000000 0.000000
    outer loop
      vertex -0.460000 -0.320000 0.020000
      vertex -0.460000 -0.283765 0.155230
      vertex -0.460000 -0.250000 0.141244
    endloop
  endfacet
  facet normal -1.000000 0.000000 0.000000
    outer loop
      vertex -0.460000 -0.320000 0.020000
      vertex -0.460000 -0.320000 0.160000
      vertex -0.460000 -0.283765 0.155230
    endloop
  endfacet
  facet normal -1.000000 0.000000 0.000000
    outer loop
      vertex -0.460000 -0.320000 0.020000
      vertex -0.460000 -0.356235 0.155230
      vertex -0.460000 -0.320000 0.160000
    endloop
  endfacet
  facet normal -1.000000 0.000000 0.000000
    outer loop
      vertex -0.460000 -0.320000 0.020000
      vertex -0.460000 -0.390000 0.141244
      vertex -0.460000 -0.356235 0.155230
    endloop
  endfacet
  facet normal -1.000000 0.000000 0.000000
    outer loop
      vertex -0.460000 -0.320000 0.020000
      vertex -0.460000 -0.418995 0.118995
      vertex -0.460000 -0.390000 0.141244
    endloop
  endfacet
  facet normal -1.000000 0.000000 0.000000
    outer loop
      vertex -0.460000 -0.320000 0.020000
      vertex -0.460000 -0.441244 0.090000
      vertex -0.460000 -0.418995 0.118995
    endloop
  endfacet
  facet normal -1.000000 0.000000 0.000000
    outer loop
      vertex -0.460000 -0.320000 0.020000
      vertex -0.460000 -0.455230 0.056235
      vertex -0.460000 -0.441244 0.090000
    endloop
  endfacet
  facet normal -1.000000 0.000000 0.000000
    outer loop
      vertex -0.460000 -0.320000 0.020000
      vertex -0.460000 -0.460000 0.020000
      vertex -0.460000 -0.455230 0.056235
    endloop
  endfacet
  facet normal -1.000000 0.000000 0.000000
    outer loop
      vertex -0.460000 -0.320000 0.020000
      vertex -0.460000 -0.455230 -0.016235
      vertex -0.460000 -0.460000 0.020000
    endloop
  endfacet
  facet normal -1.000000 0.000000 0.000000
    outer loop
      vertex -0.460000 -0.320000 0.020000
      vertex -0.460000 -0.441244 -0.050000
      vertex -0.460000 -0.455230 -0.016235
    endloop
  endfacet
  facet normal -1.000000 0.000000 0.000000
    outer loop
      vertex -0.460000 -0.320000 0.020000
      vertex -0.460000 -0.418995 -0.078995
      vertex -0.460000 -0.441244 -0.050000
    endloop
  endfacet
  facet normal -1.000000 0.000000 0.000000
    outer loop
      vertex -0.460000 -0.320000 0.020000
      vertex -0.460000 -0.390000 -0.101244
      vertex -0.460000 -0.418995 -0.078995
    endloop
  endfacet
  facet normal -1.000000 0.000000 0.000000
    outer loop
      vertex -0.460000 -0.320000 0.020000
      vertex -0.460000 -0.356235 -0.115230
      vertex -0.460000 -0.390000 -0.101244
    endloop
  endfacet
  facet normal -1.000000 0.000000 0.000000
    outer loop
      vertex -0.460000 -0.320000 0.020000
      vertex -0.460000 -0.320000 -0.120000
      vertex -0.460000 -0.356235 -0.115230
    endloop
  endfacet
  facet normal -1.000000 0.000000 0.000000
    outer loop
      vertex -0.460000 -0.320000 0.020000
      vertex -0.460000 -0.283765 -0.115230
      vertex -0.460000 -0.320000 -0.120000
    endloop
  endfacet
  facet normal -1.000000 0.000000 0.000000
    outer loop
      vertex -0.460000 -0.320000 0.020000
      vertex -0.460000 -0.250000 -0.101244
      vertex -0.460000 -0.283765 -0.115230
    endloop
  endfacet
  facet normal -1.000000 0.000000 0.000000
    outer loop
      vertex -0.460000 -0.320000 0.020000
      vertex -0.460000 -0.221005 -0.078995
      vertex -0.460000 -0.250000 -0.101244
    endloop
  endfacet
  facet normal -1.000000 0.000000 0.000000
    outer loop
      vertex -0.460000 -0.320000 0.020000
      vertex -0.460000 -0.198756 -0.050000
      vertex -0.460000 -0.221005 -0.078995
    endloop
  endfacet
  facet normal -1.000000 0.000000 0.000000
    outer loop
      vertex -0.460000 -0.320000 0.020000
      vertex -0.460000 -0.184770 -0.016235
      vertex -0.460000 -0.198756 -0.050000
    endloop
  endfacet
  facet normal -1.000000 0.000000 0.000000
    outer loop
      vertex -0.460000 -0.320000 0.020000
      vertex -0.460000 -0.180000 0.020000
      vertex -0.460000 -0.184770 -0.016235
    endloop
  endfacet
  facet normal 0.000000 0.991445 0.130526
    outer loop
      vertex 0.300000 -0.180000 0.020000
      vertex 0.300000 -0.184770 0.056235
      vertex 0.460000 -0.184770 0.056235
    endloop
  endfacet
  facet normal 0.000000 0.991445 0.130526
    outer loop
      vertex 0.300000 -0.180000 0.020000
      vertex 0.460000 -0.184770 0.056235
      vertex 0.460000 -0.180000 0.020000
    endloop
  endfacet
  facet normal 0.000000 0.923880 0.382683
    outer loop
      vertex 0.300000 -0.184770 0.056235
      vertex 0.300000 -0.198756 0.090000
      vertex 0.460000 -0.198756 0.090000
    endloop
  endfacet
  facet normal 0.000000 0.923880 0.382683
    outer loop
      vertex 0.300000 -0.184770 0.056235
      vertex 0.460000 -0.198756 0.090000
      vertex 0.460000 -0.184770 0.056235
    endloop
  endfacet
  facet normal 0.000000 0.793353 0.608761
    outer loop
      vertex 0.300000 -0.198756 0.090000
      vertex 0.300000 -0.221005 0.118995
      vertex 0.460000 -0.221005 0.118995
    endloop
  endfacet
  facet normal 0.000000 0.793353 0.608761
    outer loop
      vertex 0.300000 -0.198756 0.090000
      vertex 0.460000 -0.221005 0.118995
      vertex 0.460000 -0.198756 0.090000
    endloop
  endfacet
  facet normal 0.000000 0.608761 0.793353
    outer loop
      vertex 0.300000 -0.221005 0.118995
      vertex 0.300000 -0.250000 0.141244
      vertex 0.460000 -0.250000 0.141244
    endloop
  endfacet
  facet normal 0.000000 0.608761 0.793353
    outer loop
      vertex 0.300000 -0.221005 0.118995
      vertex 0.460000 -0.250000 0.141244
      vertex 0.460000 -0.221005 0.118995
    endloop
  endfacet
  facet normal 0.000000 0.382683 0.923880
    outer loop
      vertex 0.300000 -0.250000 0.141244
      vertex 0.300000 -0.283765 0.155230
      vertex 0.460000 -0.283765 0.155230
    endloop
  endfacet
  facet normal 0.000000 0.382683 0.923880
    outer loop
      vertex 0.300000 -0.250000 0.141244
      vertex 0.460000 -0.283765 0.155230
      vertex 0.460000 -0.250000 0.141244
    endloop
  endfacet
  facet normal 0.000000 0.130526 0.991445
    outer loop
      vertex 0.300000 -0.283765 0.155230
      vertex 0.300000 -0.320000 0.160000
      vertex 0.460000 -0.320000 0.160000
    endloop
  endfacet
  facet normal 0.000000 0.130526 0.991445
    outer loop
      vertex 0.300000 -0.283765 0.155230
      vertex 0.460000 -0.320000 0.160000
      vertex 0.460000 -0.283765 0.155230
    endloop
  endfacet
  facet normal 0.000000 -0.130526 0.991445
    outer loop
      vertex 0.300000 -0.320000 0.160000
      vertex 0.300000 -0.356235 0.155230
      vertex 0.460000 -0.356235 0.155230
    endloop
  endfacet
  facet normal 0.000000 -0.130526 0.991445
    outer loop
      vertex 0.300000 -0.320000 0.160000
      vertex 0.460000 -0.356235 0.155230
      vertex 0.460000 -0.320000 0.160000
    endloop
  endfacet
  facet normal 0.000000 -0.382683 0.923880
    outer loop
      vertex 0.300000 -0.356235 0.155230
      vertex 0.300000 -0.390000 0.141244
      vertex 0.460000 -0.390000 0.141244
    endloop
  endfacet
  facet normal 0.000000 -0.382683 0.923880
    outer loop
      vertex 0.300000 -0.356235 0.155230
      vertex 0.460000 -0.390000 0.141244
      vertex 0.460000 -0.356235 0.155230
    endloop
  endfacet
  facet normal 0.000000 -0.608761 0.793353
    outer loop
      vertex 0.300000 -0.390000 0.141244
      vertex 0.300000 -0.418995 0.118995
      vertex 0.460000 -0.418995 0.118995
    endloop
  endfacet
  facet normal 0.000000 -0.608761 0.793353
    outer loop
      vertex 0.300000 -0.390000 0.141244
      vertex 0.460000 -0.418995 0.118995
      vertex 0.460000 -0.390000 0.141244
    endloop
  endfacet
  facet normal 0.000000 -0.793353 0.608761
    outer loop
      vertex 0.300000 -0.418995 0.118995
      vertex 0.300000 -0.441244 0.090000
      vertex 0.460000 -0.441244 0.090000
    endloop
  endfacet
  facet normal 0.000000 -0.793353 0.608761
    outer loop
      vertex 0.300000 -0.418995 0.118995
      vertex 0.460000 -0.441244 0.090000
      vertex 0.460000 -0.418995 0.118995
    endloop
  endfacet
  facet normal 0.000000 -0.923880 0.382683
    outer loop
      vertex 0.300000 -0.441244 0.090000
      vertex 0.300000 -0.455230 0.056235
      vertex 0.460000 -0.455230 0.056235
    endloop
  endfacet
  facet normal 0.000000 -0.923880 0.382683
    outer loop
      vertex 0.300000 -0.441244 0.090000
      vertex 0.460000 -0.455230 0.056235
      vertex 0.460000 -0.441244 0.090000
    endloop
  endfacet
  facet normal 0.000000 -0.991445 0.130526
    outer loop
      vertex 0.300000 -0.455230 0.056235
      vertex 0.300000 -0.460000 0.020000
      vertex 0.460000 -0.460000 0.020000
    endloop
  endfacet
  facet normal 0.000000 -0.991445 0.130526
    outer loop
      vertex 0.300000 -0.455230 0.056235
      vertex 0.460000 -0.460000 0.020000
      vertex 0.460000 -0.455230 0.056235
    endloop
  endfacet
  facet normal 0.000000 -0.991445 -0.130526
    outer loop
      vertex 0.300000 -0.460000 0.020000
      vertex 0.300000 -0.455230 -0.016235
      vertex 0.460000 -0.455230 -0.016235
    endloop
  endfacet
  facet normal 0.000000 -0.991445 -0.130526
    outer loop
      vertex 0.300000 -0.460000 0.020000
      vertex 0.460000 -0.455230 -0.016235
      vertex 0.460000 -0.460000 0.020000
    endloop
  endfacet
  facet normal 0.000000 -0.923880 -0.382683
    outer loop
      vertex 0.300000 -0.455230 -0.016235
      vertex 0.300000 -0.441244 -0.050000
      vertex 0.460000 -0.441244 -0.050000
    endloop
  endfacet
  facet normal 0.000000 -0.923880 -0.382683
    outer loop
      vertex 0.300000 -0.455230 -0.016235
      vertex 0.460000 -0.441244 -0.050000
      vertex 0.460000 -0.455230 -0.016235
    endloop
  endfacet
  facet normal 0.000000 -0.793353 -0.608761
    outer loop
      vertex 0.300000 -0.441244 -0.050000
      vertex 0.300000 -0.418995 -0.078995
      vertex 0.460000 -0.418995 -0.078995
    endloop
  endfacet
  facet normal 0.000000 -0.793353 -0.608761
    outer loop
      vertex 0.300000 -0.441244 -0.050000
      vertex 0.460000 -0.418995 -0.078995
      vertex 0.460000 -0.441244 -0.050000
    endloop
  endfacet
  facet normal 0.000000 -0.608761 -0.793353
    outer loop
      vertex 0.300000 -0.418995 -0.078995
      vertex 0.300000 -0.390000 -0.101244
      vertex 0.460000 -0.390000 -0.101244
    endloop
  endfacet
  facet normal 0.000000 -0.608761 -0.793353
    outer loop
      vertex 0.300000 -0.418995 -0.078995
      vertex 0.460000 -0.390000 -0.101244
      vertex 0.460000 -0.418995 -0.078995
    endloop
  endfacet
  facet normal 0.000000 -0.382683 -0.923880
    outer loop
      vertex 0.300000 -0.390000 -0.101244
      vertex 0.300000 -0.356235 -0.115230
      vertex 0.460000 -0.356235 -0.115230
    endloop
  endfacet
  facet normal 0.000000 -0.382683 -0.923880
    outer loop
      vertex 0.300000 -0.390000 -0.101244
      vertex 0.460000 -0.356235 -0.115230
      vertex 0.460000 -0.390000 -0.101244
    endloop
  endfacet
  facet normal 0.000000 -0.130526 -0.991445
    outer loop
      vertex 0.300000 -0.356235 -0.115230
      vertex 0.300000 -0.320000 -0.120000
      vertex 0.460000 -0.320000 -0.120000
    endloop
  endfacet
  facet normal 0.000000 -0.130526 -0.991445
    outer loop
      vertex 0.300000 -0.356235 -0.115230
      vertex 0.460000 -0.320000 -0.120000
      vertex 0.460000 -0.356235 -0.115230
    endloop
  endfacet
  facet normal 0.000000 0.130526 -0.991445
    outer loop
      vertex 0.300000 -0.320000 -0.120000
      vertex 0.300000 -0.283765 -0.115230
      vertex 0.460000 -0.283765 -0.115230
    endloop
  endfacet
  facet normal 0.000000 0.130526 -0.991445
    outer loop
      vertex 0.300000 -0.320000 -0.120000
      vertex 0.460000 -0.283765 -0.115230
      vertex 0.460000 -0.320000 -0.120000
    endloop
  endfacet
  facet normal 0.000000 0.382683 -0.923880
    outer loop
      vertex 0.300000 -0.283765 -0.115230
      vertex 0.300000 -0.250000 -0.101244
      vertex 0.460000 -0.250000 -0.101244
    endloop
  endfacet
  facet normal 0.000000 0.382683 -0.923880
    outer loop
      vertex 0.300000 -0.283765 -0.115230
      vertex 0.460000 -0.250000 -0.101244
      vertex 0.460000 -0.283765 -0.115230
    endloop
  endfacet
  facet normal 0.000000 0.608761 -0.793353
    outer loop
      vertex 0.300000 -0.250000 -0.101244
      vertex 0.300000 -0.221005 -0.078995
      vertex 0.460000 -0.221005 -0.078995
    endloop
  endfacet
  facet normal 0.000000 0.608761 -0.793353
    outer loop
      vertex 0.300000 -0.250000 -0.101244
      vertex 0.460000 -0.221005 -0.078995
      vertex 0.460000 -0.250000 -0.101244
    endloop
  endfacet
  facet normal 0.000000 0.793353 -0.608761
    outer loop
      vertex 0.300000 -0.221005 -0.078995
      vertex 0.300000 -0.198756 -0.050000
      vertex 0.460000 -0.198756 -0.050000
    endloop
  endfacet
  facet normal 0.000000 0.793353 -0.608761
    outer loop
      vertex 0.300000 -0.221005 -0.078995
      vertex 0.460000 -0.198756 -0.050000
      vertex 0.460000 -0.221005 -0.078995
    endloop
  endfacet
  facet normal 0.000000 0.923880 -0.382683
    outer loop
      vertex 0.300000 -0.198756 -0.050000
      vertex 0.300000 -0.184770 -0.016235
      vertex 0.460000 -0.184770 -0.016235
    endloop
  endfacet
  facet normal 0.000000 0.923880 -0.382683
    outer loop
      vertex 0.300000 -0.198756 -0.050000
      vertex 0.460000 -0.184770 -0.016235
      vertex 0.460000 -0.198756 -0.050000
    endloop
  endfacet
  facet normal 0.000000 0.991445 -0.130526
    outer loop
      vertex 0.300000 -0.184770 -0.016235
      vertex 0.300000 -0.180000 0.020000
      vertex 0.460000 -0.180000 0.020000
    endloop
  endfacet
  facet normal 0.000000 0.991445 -0.130526
    outer loop
      vertex 0.300000 -0.184770 -0.016235
      vertex 0.460000 -0.180000 0.020000
      vertex 0.460000 -0.184770 -0.016235
    endloop
  endfacet
  facet normal 1.000000 0.000000 0.000000
    outer loop
      vertex 0.460000 -0.320000 0.020000
      vertex 0.460000 -0.180000 0.020000
      vertex 0.460000 -0.184770 0.056235
    endloop
  endfacet
  facet normal 1.000000 0.000000 0.000000
    outer loop
      vertex 0.460000 -0.320000 0.020000
      vertex 0.460000 -0.184770 0.056235
      vertex 0.460000 -0.198756 0.090000
    endloop
  endfacet
  facet normal 1.000000 0.000000 0.000000
    outer loop
      vertex 0.460000 -0.320000 0.020000
      vertex 0.460000 -0.198756 0.090000
      vertex 0.460000 -0.221005 0.118995
    endloop
  endfacet
  facet normal 1.000000 0.000000 0.000000
    outer loop
      vertex 0.460000 -0.320000 0.020000
      vertex 0.460000 -0.221005 0.118995
      vertex 0.460000 -0.250000 0.141244
    endloop
  endfacet
  facet normal 1.000000 0.000000 0.000000
    outer loop
      vertex 0.460000 -0.320000 0.020000
      vertex 0.460000 -0.250000 0.141244
      vertex 0.460000 -0.283765 0.155230
    endloop
  endfacet
  facet normal 1.000000 0.000000 0.000000
    outer loop
      vertex 0.460000 -0.320000 0.020000
      vertex 0.460000 -0.283765 0.155230
      vertex 0.460000 -0.320000 0.160000
    endloop
  endfacet
  facet normal 1.000000 0.000000 0.000000
    outer loop
      vertex 0.460000 -0.320000 0.020000
      vertex 0.460000 -0.320000 0.160000
      vertex 0.460000 -0.356235 0.155230
    endloop
  endfacet
  facet normal 1.000000 0.000000 0.000000
    outer loop
      vertex 0.460000 -0.320000 0.020000
      vertex 0.460000 -0.356235 0.155230
      vertex 0.460000 -0.390000 0.141244
    endloop
  endfacet
  facet normal 1.000000 0.000000 0.000000
    outer loop
      vertex 0.460000 -0.320000 0.020000
      vertex 0.460000 -0.390000 0.141244
      vertex 0.460000 -0.418995 0.118995
    endloop
  endfacet
  facet normal 1.000000 0.000000 0.000000
    outer loop
      vertex 0.460000 -0.320000 0.020000
      vertex 0.460000 -0.418995 0.118995
      vertex 0.460000 -0.441244 0.090000
    endloop
  endfacet
  facet normal 1.000000 0.000000 0.000000
    outer loop
      vertex 0.460000 -0.320000 0.020000
      vertex 0.460000 -0.441244 0.090000
      vertex 0.460000 -0.455230 0.056235
    endloop
  endfacet
  facet normal 1.000000 0.000000 0.000000
    outer loop
      vertex 0.460000 -0.320000 0.020000
      vertex 0.460000 -0.455230 0.056235
      vertex 0.460000 -0.460000 0.020000
    endloop
  endfacet
  facet normal 1.000000 0.000000 0.000000
    outer loop
      vertex 0.460000 -0.320000 0.020000
      vertex 0.460000 -0.460000 0.020000
      vertex 0.460000 -0.455230 -0.016235
    endloop
  endfacet
  facet normal 1.000000 0.000000 0.000000
    outer loop
      vertex 0.460000 -0.320000 0.020000
      vertex 0.460000 -0.455230 -0.016235
      vertex 0.460000 -0.441244 -0.050000
    endloop
  endfacet
  facet normal 1.000000 0.000000 0.000000
    outer loop
      vertex 0.460000 -0.320000 0.020000
      vertex 0.460000 -0.441244 -0.050000
      vertex 0.460000 -0.418995 -0.078995
    endloop
  endfacet
  facet normal 1.000000 0.000000 0.000000
    outer loop
      vertex 0.460000 -0.320000 0.020000
      vertex 0.460000 -0.418995 -0.078995
      vertex 0.460000 -0.390000 -0.101244
    endloop
  endfacet
  facet normal 1.000000 0.000000 0.000000
    outer loop
      vertex 0.460000 -0.320000 0.020000
      vertex 0.460000 -0.390000 -0.101244
      vertex 0.460000 -0.356235 -0.115230
    endloop
  endfacet
  facet normal 1.000000 0.000000 0.000000
    outer loop
      vertex 0.460000 -0.320000 0.020000
      vertex 0.460000 -0.356235 -0.115230
      vertex 0.460000 -0.320000 -0.120000
    endloop
  endfacet
  facet normal 1.000000 0.000000 0.000000
    outer loop
      vertex 0.460000 -0.320000 0.020000
      vertex 0.460000 -0.320000 -0.120000
      vertex 0.460000 -0.283765 -0.115230
    endloop
  endfacet
  facet normal 1.000000 0.000000 0.000000
    outer loop
      vertex 0.460000 -0.320000 0.020000
      vertex 0.460000 -0.283765 -0.115230
      vertex 0.460000 -0.250000 -0.101244
    endloop
  endfacet
  facet normal 1.000000 0.000000 0.000000
    outer loop
      vertex 0.460000 -0.320000 0.020000
      vertex 0.460000 -0.250000 -0.101244
      vertex 0.460000 -0.221005 -0.078995
    endloop
  endfacet
  facet normal 1.000000 0.000000 0.000000
    outer loop
      vertex 0.460000 -0.320000 0.020000
      vertex 0.460000 -0.221005 -0.078995
      vertex 0.460000 -0.198756 -0.050000
    endloop
  endfacet
  facet normal 1.000000 0.000000 0.000000
    outer loop
      vertex 0.460000 -0.320000 0.020000
      vertex 0.460000 -0.198756 -0.050000
      vertex 0.460000 -0.184770 -0.016235
    endloop
  endfacet
  facet normal 1.000000 0.000000 0.000000
    outer loop
      vertex 0.460000 -0.320000 0.020000
      vertex 0.460000 -0.184770 -0.016235
      vertex 0.460000 -0.180000 0.020000
    endloop
  endfacet
  facet normal -1.000000 0.000000 0.000000
    outer loop
      vertex 0.300000 -0.320000 0.020000
      vertex 0.300000 -0.184770 0.056235
      vertex 0.300000 -0.180000 0.020000
    endloop
  endfacet
  facet normal -1.000000 0.000000 0.000000
    outer loop
      vertex 0.300000 -0.320000 0.020000
      vertex 0.300000 -0.198756 0.090000
      vertex 0.300000 -0.184770 0.056235
    endloop
  endfacet
  facet normal -1.000000 0.000000 0.000000
    outer loop
      vertex 0.300000 -0.320000 0.020000
      vertex 0.300000 -0.221005 0.118995
      vertex 0.300000 -0.198756 0.090000
    endloop
  endfacet
  facet normal -1.000000 0.000000 0.000000
    outer loop
      vertex 0.300000 -0.320000 0.020000
      vertex 0.300000 -0.250000 0.141244
      vertex 0.300000 -0.221005 0.118995
    endloop
  endfacet
  facet normal -1.000000 0.000000 0.000000
    outer loop
      vertex 0.300000 -0.320000 0.020000
      vertex 0.300000 -0.283765 0.155230
      vertex 0.300000 -0.250000 0.141244
    endloop
  endfacet
  facet normal -1.000000 0.000000 0.000000
    outer loop
      vertex 0.300000 -0.320000 0.020000
      vertex 0.300000 -0.320000 0.160000
      vertex 0.300000 -0.283765 0.155230
    endloop
  endfacet
  facet normal -1.000000 0.000000 0.000000
    outer loop
      vertex 0.300000 -0.320000 0.020000
      vertex 0.300000 -0.356235 0.155230
      vertex 0.300000 -0.320000 0.160000
    endloop
  endfacet
  facet normal -1.000000 0.000000 0.000000
    outer loop
      vertex 0.300000 -0.320000 0.020000
      vertex 0.300000 -0.390000 0.141244
      vertex 0.300000 -0.356235 0.155230
    endloop
  endfacet
  facet normal -1.000000 0.000000 0.000000
    outer loop
      vertex 0.300000 -0.320000 0.020000
      vertex 0.300000 -0.418995 0.118995
      vertex 0.300000 -0.390000 0.141244
    endloop
  endfacet
  facet normal -1.000000 0.000000 0.000000
    outer loop
      vertex 0.300000 -0.320000 0.020000
      vertex 0.300000 -0.441244 0.090000
      vertex 0.300000 -0.418995 0.118995
    endloop
  endfacet
  facet normal -1.000000 0.000000 0.000000
    outer loop
      vertex 0.300000 -0.320000 0.020000
      vertex 0.300000 -0.455230 0.056235
      vertex 0.300000 -0.441244 0.090000
    endloop
  endfacet
  facet normal -1.000000 0.000000 0.000000
    outer loop
      vertex 0.300000 -0.320000 0.020000
      vertex 0.300000 -0.460000 0.020000
      vertex 0.300000 -0.455230 0.056235
    endloop
  endfacet
  facet normal -1.000000 0.000000 0.000000
    outer loop
      vertex 0.300000 -0.320000 0.020000
      vertex 0.300000 -0.455230 -0.016235
      vertex 0.300000 -0.460000 0.020000
    endloop
  endfacet
  facet normal -1.000000 0.000000 0.000000
    outer loop
      vertex 0.300000 -0.320000 0.020000
      vertex 0.300000 -0.441244 -0.050000
      vertex 0.300000 -0.455230 -0.016235
    endloop
  endfacet
  facet normal -1.000000 0.000000 0.000000
    outer loop
      vertex 0.300000 -0.320000 0.020000
      vertex 0.300000 -0.418995 -0.078995
      vertex 0.300000 -0.441244 -0.050000
    endloop
  endfacet
  facet normal -1.000000 0.000000 0.000000
    outer loop
      vertex 0.300000 -0.320000 0.020000
      vertex 0.300000 -0.390000 -0.101244
      vertex 0.300000 -0.418995 -0.078995
    endloop
  endfacet
  facet normal -1.000000 0.000000 0.000000
    outer loop
      vertex 0.300000 -0.320000 0.020000
      vertex 0.300000 -0.356235 -0.115230
      vertex 0.300000 -0.390000 -0.101244
    endloop
  endfacet
  facet normal -1.000000 0.000000 0.000000
    outer loop
      vertex 0.300000 -0.320000 0.020000
      vertex 0.300000 -0.320000 -0.120000
      vertex 0.300000 -0.356235 -0.115230
    endloop
  endfacet
  facet normal -1.000000 0.000000 0.000000
    outer loop
      vertex 0.300000 -0.320000 0.020000
      vertex 0.300000 -0.283765 -0.115230
      vertex 0.300000 -0.320000 -0.120000
    endloop
  endfacet
  facet normal -1.000000 0.000000 0.000000
    outer loop
      vertex 0.300000 -0.320000 0.020000
      vertex 0.300000 -0.250000 -0.101244
      vertex 0.300000 -0.283765 -0.115230
    endloop
  endfacet
  facet normal -1.000000 0.000000 0.000000
    outer loop
      vertex 0.300000 -0.320000 0.020000
      vertex 0.300000 -0.221005 -0.078995
      vertex 0.300000 -0.250000 -0.101244
    endloop
  endfacet
  facet normal -1.000000 0.000000 0.000000
    outer loop
      vertex 0.300000 -0.320000 0.020000
      vertex 0.300000 -0.198756 -0.050000
      vertex 0.300000 -0.221005 -0.078995
    endloop
  endfacet
  facet normal -1.000000 0.000000 0.000000
    outer loop
      vertex 0.300000 -0.320000 0.020000
      vertex 0.300000 -0.184770 -0.016235
      vertex 0.300000 -0.198756 -0.050000
    endloop
  endfacet
  facet normal -1.000000 0.000000 0.000000
    outer loop
      vertex 0.300000 -0.320000 0.020000
      vertex 0.300000 -0.180000 0.020000
      vertex 0.300000 -0.184770 -0.016235
    endloop
  endfacet
  facet normal 0.000000 0.991445 0.130526
    outer loop
      vertex -0.460000 0.460000 0.020000
      vertex -0.460000 0.455230 0.056235
      vertex -0.300000 0.455230 0.056235
    endloop
  endfacet
  facet normal 0.000000 0.991445 0.130526
    outer loop
      vertex -0.460000 0.460000 0.020000
      vertex -0.300000 0.455230 0.056235
      vertex -0.300000 0.460000 0.020000
    endloop
  endfacet
  facet normal 0.000000 0.923880 0.382683
    outer loop
      vertex -0.460000 0.455230 0.056235
      vertex -0.460000 0.441244 0.090000
      vertex -0.300000 0.441244 0.090000
    endloop
  endfacet
  facet normal 0.000000 0.923880 0.382683
    outer loop
      vertex -0.460000 0.455230 0.056235
      vertex -0.300000 0.441244 0.090000
      vertex -0.300000 0.455230 0.056235
    endloop
  endfacet
  facet normal 0.000000 0.793353 0.608761
    outer loop
      vertex -0.460000 0.441244 0.090000
      vertex -0.460000 0.418995 0.118995
      vertex -0.300000 0.418995 0.118995
    endloop
  endfacet
  facet normal 0.000000 0.793353 0.608761
    outer loop
      vertex -0.460000 0.441244 0.090000
      vertex -0.300000 0.418995 0.118995
      vertex -0.300000 0.441244 0.090000
    endloop
  endfacet
  facet normal 0.000000 0.608761 0.793353
    outer loop
      vertex -0.460000 0.418995 0.118995
      vertex -0.460000 0.390000 0.141244
      vertex -0.300000 0.390000 0.141244
    endloop
  endfacet
  facet normal 0.000000 0.608761 0.793353
    outer loop
      vertex -0.460000 0.418995 0.118995
      vertex -0.300000 0.390000 0.141244
      vertex -0.300000 0.418995 0.118995
    endloop
  endfacet
  facet normal 0.000000 0.382683 0.923880
    outer loop
      vertex -0.460000 0.390000 0.141244
      vertex -0.460000 0.356235 0.155230
      vertex -0.300000 0.356235 0.155230
    endloop
  endfacet
  facet normal 0.000000 0.382683 0.923880
    outer loop
      vertex -0.460000 0.390000 0.141244
      vertex -0.300000 0.356235 0.155230
      vertex -0.300000 0.390000 0.141244
    endloop
  endfacet
  facet normal 0.000000 0.130526 0.991445
    outer loop
      vertex -0.460000 0.356235 0.155230
      vertex -0.460000 0.320000 0.160000
      vertex -0.300000 0.320000 0.160000
    endloop
  endfacet
  facet normal 0.000000 0.130526 0.991445
    outer loop
      vertex -0.460000 0.356235 0.155230
      vertex -0.300000 0.320000 0.160000
      vertex -0.300000 0.356235 0.155230
    endloop
  endfacet
  facet normal 0.000000 -0.130526 0.991445
    outer loop
      vertex -0.460000 0.320000 0.160000
      vertex -0.460000 0.283765 0.155230
      vertex -0.300000 0.283765 0.155230
    endloop
  endfacet
  facet normal 0.000000 -0.130526 0.991445
    outer loop
      vertex -0.460000 0.320000 0.160000
      vertex -0.300000 0.283765 0.155230
      vertex -0.300000 0.320000 0.160000
    endloop
  endfacet
  facet normal 0.000000 -0.382683 0.923880
    outer loop
      vertex -0.460000 0.283765 0.155230
      vertex -0.460000 0.250000 0.141244
      vertex -0.300000 0.250000 0.141244
    endloop
  endfacet
  facet normal 0.000000 -0.382683 0.923880
    outer loop
      vertex -0.460000 0.283765 0.155230
      vertex -0.300000 0.250000 0.141244
      vertex -0.300000 0.283765 0.155230
    endloop
  endfacet
  facet normal 0.000000 -0.608761 0.793353
    outer loop
      vertex -0.460000 0.250000 0.141244
      vertex -0.460000 0.221005 0.118995
      vertex -0.300000 0.221005 0.118995
    endloop
  endfacet
  facet normal 0.000000 -0.608761 0.793353
    outer loop
      vertex -0.460000 0.250000 0.141244
      vertex -0.300000 0.221005 0.118995
      vertex -0.300000 0.250000 0.141244
    endloop
  endfacet
  facet normal 0.000000 -0.793353 0.608761
    outer loop
      vertex -0.460000 0.221005 0.118995
      vertex -0.460000 0.198756 0.090000
      vertex -0.300000 0.198756 0.090000
    endloop
  endfacet
  facet normal 0.000000 -0.793353 0.608761
    outer loop
      vertex -0.460000 0.221005 0.118995
      vertex -0.300000 0.198756 0.090000
      vertex -0.300000 0.221005 0.118995
    endloop
  endfacet
  facet normal 0.000000 -0.923880 0.382683
    outer loop
      vertex -0.460000 0.198756 0.090000
      vertex -0.460000 0.184770 0.056235
      vertex -0.300000 0.184770 0.056235
    endloop
  endfacet
  facet normal 0.000000 -0.923880 0.382683
    outer loop
      vertex -0.460000 0.198756 0.090000
      vertex -0.300000 0.184770 0.056235
      vertex -0.300000 0.198756 0.090000
    endloop
  endfacet
  facet normal 0.000000 -0.991445 0.130526
    outer loop
      vertex -0.460000 0.184770 0.056235
      vertex -0.460000 0.180000 0.020000
      vertex -0.300000 0.180000 0.020000
    endloop
  endfacet
  facet normal 0.000000 -0.991445 0.130526
    outer loop
      vertex -0.460000 0.184770 0.056235
      vertex -0.300000 0.180000 0.020000
      vertex -0.300000 0.184770 0.056235
    endloop
  endfacet
  facet normal 0.000000 -0.991445 -0.130526
    outer loop
      vertex -0.460000 0.180000 0.020000
      vertex -0.460000 0.184770 -0.016235
      vertex -0.300000 0.184770 -0.016235
    endloop
  endfacet
  facet normal 0.000000 -0.991445 -0.130526
    outer loop
      vertex -0.460000 0.180000 0.020000
      vertex -0.300000 0.184770 -0.016235
      vertex -0.300000 0.180000 0.020000
    endloop
  endfacet
  facet normal 0.000000 -0.923880 -0.382683
    outer loop
      vertex -0.460000 0.184770 -0.016235
      vertex -0.460000 0.198756 -0.050000
      vertex -0.300000 0.198756 -0.050000
    endloop
  endfacet
  facet normal 0.000000 -0.923880 -0.382683
    outer loop
      vertex -0.460000 0.184770 -0.016235
      vertex -0.300000 0.198756 -0.050000
      vertex -0.300000 0.184770 -0.016235
    endloop
  endfacet
  facet normal 0.000000 -0.793353 -0.608761
    outer loop
      vertex -0.460000 0.198756 -0.050000
      vertex -0.460000 0.221005 -0.078995
      vertex -0.300000 0.221005 -0.078995
    endloop
  endfacet
  facet normal 0.000000 -0.793353 -0.608761
    outer loop
      vertex -0.460000 0.198756 -0.050000
      vertex -0.300000 0.221005 -0.078995
      vertex -0.300000 0.198756 -0.050000
    endloop
  endfacet
  facet normal 0.000000 -0.608761 -0.793353
    outer loop
      vertex -0.460000 0.221005 -0.078995
      vertex -0.460000 0.250000 -0.101244
      vertex -0.300000 0.250000 -0.101244
    endloop
  endfacet
  facet normal 0.000000 -0.608761 -0.793353
    outer loop
      vertex -0.460000 0.221005 -0.078995
      vertex -0.300000 0.250000 -0.101244
      vertex -0.300000 0.221005 -0.078995
    endloop
  endfacet
  facet normal 0.000000 -0.382683 -0.923880
    outer loop
      vertex -0.460000 0.250000 -0.101244
      vertex -0.460000 0.283765 -0.115230
      vertex -0.300000 0.283765 -0.115230
    endloop
  endfacet
  facet normal 0.000000 -0.382683 -0.923880
    outer loop
      vertex -0.460000 0.250000 -0.101244
      vertex -0.300000 0.283765 -0.115230
      vertex -0.300000 0.250000 -0.101244
    endloop
  endfacet
  facet normal 0.000000 -0.130526 -0.991445
    outer loop
      vertex -0.460000 0.283765 -0.115230
      vertex -0.460000 0.320000 -0.120000
      vertex -0.300000 0.320000 -0.120000
    endloop
  endfacet
  facet normal 0.000000 -0.130526 -0.991445
    outer loop
      vertex -0.460000 0.283765 -0.115230
      vertex -0.300000 0.320000 -0.120000
      vertex -0.300000 0.283765 -0.115230
    endloop
  endfacet
  facet normal 0.000000 0.130526 -0.991445
    outer loop
      vertex -0.460000 0.320000 -0.120000
      vertex -0.460000 0.356235 -0.115230
      vertex -0.300000 0.356235 -0.115230
    endloop
  endfacet
  facet normal 0.000000 0.130526 -0.991445
    outer loop
      vertex -0.460000 0.320000 -0.120000
      vertex -0.300000 0.356235 -0.115230
      vertex -0.300000 0.320000 -0.120000
    endloop
  endfacet
  facet normal 0.000000 0.382683 -0.923880
    outer loop
      vertex -0.460000 0.356235 -0.115230
      vertex -0.460000 0.390000 -0.101244
      vertex -0.300000 0.390000 -0.101244
    endloop
  endfacet
  facet normal 0.000000 0.382683 -0.923880
    outer loop
      vertex -0.460000 0.356235 -0.115230
      vertex -0.300000 0.390000 -0.101244
      vertex -0.300000 0.356235 -0.115230
    endloop
  endfacet
  facet normal 0.000000 0.608761 -0.793353
    outer loop
      vertex -0.460000 0.390000 -0.101244
      vertex -0.460000 0.418995 -0.078995
      vertex -0.300000 0.418995 -0.078995
    endloop
  endfacet
  facet normal 0.000000 0.608761 -0.793353
    outer loop
      vertex -0.460000 0.390000 -0.101244
      vertex -0.300000 0.418995 -0.078995
      vertex -0.300000 0.390000 -0.101244
    endloop
  endfacet
  facet normal 0.000000 0.793353 -0.608761
    outer loop
      vertex -0.460000 0.418995 -0.078995
      vertex -0.460000 0.441244 -0.050000
      vertex -0.300000 0.441244 -0.050000
    endloop
  endfacet
  facet normal 0.000000 0.793353 -0.608761
    outer loop
      vertex -0.460000 0.418995 -0.078995
      vertex -0.300000 0.441244 -0.050000
      vertex -0.300000 0.418995 -0.078995
    endloop
  endfacet
  facet normal 0.000000 0.923880 -0.382683
    outer loop
      vertex -0.460000 0.441244 -0.050000
      vertex -0.460000 0.455230 -0.016235
      vertex -0.300000 0.455230 -0.016235
    endloop
  endfacet
  facet normal 0.000000 0.923880 -0.382683
    outer loop
      vertex -0.460000 0.441244 -0.050000
      vertex -0.300000 0.455230 -0.016235
      vertex -0.300000 0.441244 -0.050000
    endloop
  endfacet
  facet normal 0.000000 0.991445 -0.130526
    outer loop
      vertex -0.460000 0.455230 -0.016235
      vertex -0.460000 0.460000 0.020000
      vertex -0.300000 0.460000 0.020000
    endloop
  endfacet
  facet normal 0.000000 0.991445 -0.130526
    outer loop
      vertex -0.460000 0.455230 -0.016235
      vertex -0.300000 0.460000 0.020000
      vertex -0.300000 0.455230 -0.016235
    endloop
  endfacet
  facet normal 1.000000 0.000000 0.000000
    outer loop
      vertex -0.300000 0.320000 0.020000
      vertex -0.300000 0.460000 0.020000
      vertex -0.300000 0.455230 0.056235
    endloop
  endfacet
  facet normal 1.000000 0.000000 0.000000
    outer loop
      vertex -0.300000 0.320000 0.020000
      vertex -0.300000 0.455230 0.056235
      vertex -0.300000 0.441244 0.090000
    endloop
  endfacet
  facet normal 1.000000 0.000000 0.000000
    outer loop
      vertex -0.300000 0.320000 0.020000
      vertex -0.300000 0.441244 0.090000
      vertex -0.300000 0.418995 0.118995
    endloop
  endfacet
  facet normal 1.000000 0.000000 0.000000
    outer loop
      vertex -0.300000 0.320000 0.020000
      vertex -0.300000 0.418995 0.118995
      vertex -0.300000 0.390000 0.141244
    endloop
  endfacet
  facet normal 1.000000 0.000000 0.000000
    outer loop
      vertex -0.300000 0.320000 0.020000
      vertex -0.300000 0.390000 0.141244
      vertex -0.300000 0.356235 0.155230
    endloop
  endfacet
  facet normal 1.000000 0.000000 0.000000
    outer loop
      vertex -0.300000 0.320000 0.020000
      vertex -0.300000 0.356235 0.155230
      vertex -0.300000 0.320000 0.160000
    endloop
  endfacet
  facet normal 1.000000 0.000000 0.000000
    outer loop
      vertex -0.300000 0.320000 0.020000
      vertex -0.300000 0.320000 0.160000
      vertex -0.300000 0.283765 0.155230
    endloop
  endfacet
  facet normal 1.000000 0.000000 0.000000
    outer loop
      vertex -0.300000 0.320000 0.020000
      vertex -0.300000 0.283765 0.155230
      vertex -0.300000 0.250000 0.141244
    endloop
  endfacet
  facet normal 1.000000 0.000000 0.000000
    outer loop
      vertex -0.300000 0.320000 0.020000
      vertex -0.300000 0.250000 0.141244
      vertex -0.300000 0.221005 0.118995
    endloop
  endfacet
  facet normal 1.000000 0.000000 0.000000
    outer loop
      vertex -0.300000 0.320000 0.020000
      vertex -0.300000 0.221005 0.118995
      vertex -0.300000 0.198756 0.090000
    endloop
  endfacet
  facet normal 1.000000 0.000000 0.000000
    outer loop
      vertex -0.300000 0.320000 0.020000
      vertex -0.300000 0.198756 0.090000
      vertex -0.300000 0.184770 0.056235
    endloop
  endfacet
  facet normal 1.000000 0.000000 0.000000
    outer loop
      vertex -0.300000 0.320000 0.020000
      vertex -0.300000 0.184770 0.056235
      vertex -0.300000 0.180000 0.020000
    endloop
  endfacet
  facet normal 1.000000 0.000000 0.000000
    outer loop
      vertex -0.300000 0.320000 0.020000
      vertex -0.300000 0.180000 0.020000
      vertex -0.300000 0.184770 -0.016235
    endloop
  endfacet
  facet normal 1.000000 0.000000 0.000000
    outer loop
      vertex -0.300000 0.320000 0.020000
      vertex -0.300000 0.184770 -0.016235
      vertex -0.300000 0.198756 -0.050000
    endloop
  endfacet
  facet normal 1.000000 0.000000 0.000000
    outer loop
      vertex -0.300000 0.320000 0.020000
      vertex -0.300000 0.198756 -0.050000
      vertex -0.300000 0.221005 -0.078995
    endloop
  endfacet
  facet normal 1.000000 0.000000 0.000000
    outer loop
      vertex -0.300000 0.320000 0.020000
      vertex -0.300000 0.221005 -0.078995
      vertex -0.300000 0.250000 -0.101244
    endloop
  endfacet
  facet normal 1.000000 0.000000 0.000000
    outer loop
      vertex -0.300000 0.320000 0.020000
      vertex -0.300000 0.250000 -0.101244
      vertex -0.300000 0.283765 -0.115230
    endloop
  endfacet
  facet normal 1.000000 0.000000 0.000000
    outer loop
      vertex -0.300000 0.320000 0.020000
      vertex -0.300000 0.283765 -0.115230
      vertex -0.300000 0.320000 -0.120000
    endloop
  endfacet
  facet normal 1.000000 0.000000 0.000000
    outer loop
      vertex -0.300000 0.320000 0.020000
      vertex -0.300000 0.320000 -0.120000
      vertex -0.300000 0.356235 -0.115230
    endloop
  endfacet
  facet normal 1.000000 0.000000 0.000000
    outer loop
      vertex -0.300000 0.320000 0.020000
      vertex -0.300000 0.356235 -0.115230
      vertex -0.300000 0.390000 -0.101244
    endloop
  endfacet
  facet normal 1.000000 0.000000 0.000000
    outer loop
      vertex -0.300000 0.320000 0.020000
      vertex -0.300000 0.390000 -0.101244
      vertex -0.300000 0.418995 -0.078995
    endloop
  endfacet
  facet normal 1.000000 0.000000 0.000000
    outer loop
      vertex -0.300000 0.320000 0.020000
      vertex -0.300000 0.418995 -0.078995
      vertex -0.300000 0.441244 -0.050000
    endloop
  endfacet
  facet normal 1.000000 0.000000 0.000000
    outer loop
      vertex -0.300000 0.320000 0.020000
      vertex -0.300000 0.441244 -0.050000
      vertex -0.300000 0.455230 -0.016235
    endloop
  endfacet
  facet normal 1.000000 0.000000 0.000000
    outer loop
      vertex -0.300000 0.320000 0.020000
      vertex -0.300000 0.455230 -0.016235
      vertex -0.300000 0.460000 0.020000
    endloop
  endfacet
  facet normal -1.000000 0.000000 0.000000
    outer loop
      vertex -0.460000 0.320000 0.020000
      vertex -0.460000 0.455230 0.056235
      vertex -0.460000 0.460000 0.020000
    endloop
  endfacet
  facet normal -1.000000 0.000000 0.000000
    outer loop
      vertex -0.460000 0.320000 0.020000
      vertex -0.460000 0.441244 0.090000
      vertex -0.460000 0.455230 0.056235
    endloop
  endfacet
  facet normal -1.000000 0.000000 0.000000
    outer loop
      vertex -0.460000 0.320000 0.020000
      vertex -0.460000 0.418995 0.118995
      vertex -0.460000 0.441244 0.090000
    endloop
  endfacet
  facet normal -1.000000 0.000000 0.000000
    outer loop
      vertex -0.460000 0.320000 0.020000
      vertex -0.460000 0.390000 0.141244
      vertex -0.460000 0.418995 0.118995
    endloop
  endfacet
  facet normal -1.000000 0.000000 0.000000
    outer loop
      vertex -0.460000 0.320000 0.020000
      vertex -0.460000 0.356235 0.155230
      vertex -0.460000 0.390000 0.141244
    endloop
  endfacet
  facet normal -1.000000 0.000000 0.000000
    outer loop
      vertex -0.460000 0.320000 0.020000
      vertex -0.460000 0.320000 0.160000
      vertex -0.460000 0.356235 0.155230
    endloop
  endfacet
  facet normal -1.000000 0.000000 0.000000
    outer loop
      vertex -0.460000 0.320000 0.020000
      vertex -0.460000 0.283765 0.155230
      vertex -0.460000 0.320000 0.160000
    endloop
  endfacet
  facet normal -1.000000 0.000000 0.000000
    outer loop
      vertex -0.460000 0.320000 0.020000
      vertex -0.460000 0.250000 0.141244
      vertex -0.460000 0.283765 0.155230
    endloop
  endfacet
  facet normal -1.000000 0.000000 0.000000
    outer loop
      vertex -0.460000 0.320000 0.020000
      vertex -0.460000 0.221005 0.118995
      vertex -0.460000 0.250000 0.141244
    endloop
  endfacet
  facet normal -1.000000 0.000000 0.000000
    outer loop
      vertex -0.460000 0.320000 0.020000
      vertex -0.460000 0.198756 0.090000
      vertex -0.460000 0.221005 0.118995
    endloop
  endfacet
  facet normal -1.000000 0.000000 0.000000
    outer loop
      vertex -0.460000 0.320000 0.020000
      vertex -0.460000 0.184770 0.056235
      vertex -0.460000 0.198756 0.090000
    endloop
  endfacet
  facet normal -1.000000 0.000000 0.000000
    outer loop
      vertex -0.460000 0.320000 0.020000
      vertex -0.460000 0.180000 0.020000
      vertex -0.460000 0.184770 0.056235
    endloop
  endfacet
  facet normal -1.000000 0.000000 0.000000
    outer loop
      vertex -0.460000 0.320000 0.020000
      vertex -0.460000 0.184770 -0.016235
      vertex -0.460000 0.180000 0.020000
    endloop
  endfacet
  facet normal -1.000000 0.000000 0.000000
    outer loop
      vertex -0.460000 0.320000 0.020000
      vertex -0.460000 0.198756 -0.050000
      vertex -0.460000 0.184770 -0.016235
    endloop
  endfacet
  facet normal -1.000000 0.000000 0.000000
    outer loop
      vertex -0.460000 0.320000 0.020000
      vertex -0.460000 0.221005 -0.078995
      vertex -0.460000 0.198756 -0.050000
    endloop
  endfacet
  facet normal -1.000000 0.000000 0.000000
    outer loop
      vertex -0.460000 0.320000 0.020000
      vertex -0.460000 0.250000 -0.101244
      vertex -0.460000 0.221005 -0.078995
    endloop
  endfacet
  facet normal -1.000000 0.000000 0.000000
    outer loop
      vertex -0.460000 0.320000 0.020000
      vertex -0.460000 0.283765 -0.115230
      vertex -0.460000 0.250000 -0.101244
    endloop
  endfacet
  facet normal -1.000000 0.000000 0.000000
    outer loop
      vertex -0.460000 0.320000 0.020000
      vertex -0.460000 0.320000 -0.120000
      vertex -0.460000 0.283765 -0.115230
    endloop
  endfacet
  facet normal -1.000000 0.000000 0.000000
    outer loop
      vertex -0.460000 0.320000 0.020000
      vertex -0.460000 0.356235 -0.115230
      vertex -0.460000 0.320000 -0.120000
    endloop
  endfacet
  facet normal -1.000000 0.000000 0.000000
    outer loop
      vertex -0.460000 0.320000 0.020000
      vertex -0.460000 0.390000 -0.101244
      vertex -0.460000 0.356235 -0.115230
    endloop
  endfacet
  facet normal -1.000000 0.000000 0.000000
    outer loop
      vertex -0.460000 0.320000 0.020000
      vertex -0.460000 0.418995 -0.078995
      vertex -0.460000 0.390000 -0.101244
    endloop
  endfacet
  facet normal -1.000000 0.000000 0.000000
    outer loop
      vertex -0.460000 0.320000 0.020000
      vertex -0.460000 0.441244 -0.050000
      vertex -0.460000 0.418995 -0.078995
    endloop
  endfacet
  facet normal -1.000000 0.000000 0.000000
    outer loop
      vertex -0.460000 0.320000 0.020000
      vertex -0.460000 0.455230 -0.016235
      vertex -0.460000 0.441244 -0.050000
    endloop
  endfacet
  facet normal -1.000000 0.000000 0.000000
    outer loop
      vertex -0.460000 0.320000 0.020000
      vertex -0.460000 0.460000 0.020000
      vertex -0.460000 0.455230 -0.016235
    endloop
  endfacet
  facet normal 0.000000 0.991445 0.130526
    outer loop
      vertex 0.300000 0.460000 0.020000
      vertex 0.300000 0.455230 0.056235
      vertex 0.460000 0.455230 0.056235
    endloop
  endfacet
  facet normal 0.000000 0.991445 0.130526
    outer loop
      vertex 0.300000 0.460000 0.020000
      vertex 0.460000 0.455230 0.056235
      vertex 0.460000 0.460000 0.020000
    endloop
  endfacet
  facet normal 0.000000 0.923880 0.382683
    outer loop
      vertex 0.300000 0.455230 0.056235
      vertex 0.300000 0.441244 0.090000
      vertex 0.460000 0.441244 0.090000
    endloop
  endfacet
  facet normal 0.000000 0.923880 0.382683
    outer loop
      vertex 0.300000 0.455230 0.056235
      vertex 0.460000 0.441244 0.090000
      vertex 0.460000 0.455230 0.056235
    endloop
  endfacet
  facet normal 0.000000 0.793353 0.608761
    outer loop
      vertex 0.300000 0.441244 0.090000
      vertex 0.300000 0.418995 0.118995
      vertex 0.460000 0.418995 0.118995
    endloop
  endfacet
  facet normal 0.000000 0.793353 0.608761
    outer loop
      vertex 0.300000 0.441244 0.090000
      vertex 0.460000 0.418995 0.118995
      vertex 0.460000 0.441244 0.090000
    endloop
  endfacet
  facet normal 0.000000 0.608761 0.793353
    outer loop
      vertex 0.300000 0.418995 0.118995
      vertex 0.300000 0.390000 0.141244
      vertex 0.460000 0.390000 0.141244
    endloop
  endfacet
  facet normal 0.000000 0.608761 0.793353
    outer loop
      vertex 0.300000 0.418995 0.118995
      vertex 0.460000 0.390000 0.141244
      vertex 0.460000 0.418995 0.118995
    endloop
  endfacet
  facet normal 0.000000 0.382683 0.923880
    outer loop
      vertex 0.300000 0.390000 0.141244
      vertex 0.300000 0.356235 0.155230
      vertex 0.460000 0.356235 0.155230
    endloop
  endfacet
  facet normal 0.000000 0.382683 0.923880
    outer loop
      vertex 0.300000 0.390000 0.141244
      vertex 0.460000 0.356235 0.155230
      vertex 0.460000 0.390000 0.141244
    endloop
  endfacet
  facet normal 0.000000 0.130526 0.991445
    outer loop
      vertex 0.300000 0.356235 0.155230
      vertex 0.300000 0.320000 0.160000
      vertex 0.460000 0.320000 0.160000
    endloop
  endfacet
  facet normal 0.000000 0.130526 0.991445
    outer loop
      vertex 0.300000 0.356235 0.155230
      vertex 0.460000 0.320000 0.160000
      vertex 0.460000 0.356235 0.155230
    endloop
  endfacet
  facet normal 0.000000 -0.130526 0.991445
    outer loop
      vertex 0.300000 0.320000 0.160000
      vertex 0.300000 0.283765 0.155230
      vertex 0.460000 0.283765 0.155230
    endloop
  endfacet
  facet normal 0.000000 -0.130526 0.991445
    outer loop
      vertex 0.300000 0.320000 0.160000
      vertex 0.460000 0.283765 0.155230
      vertex 0.460000 0.320000 0.160000
    endloop
  endfacet
  facet normal 0.000000 -0.382683 0.923880
    outer loop
      vertex 0.300000 0.283765 0.155230
      vertex 0.300000 0.250000 0.141244
      vertex 0.460000 0.250000 0.141244
    endloop
  endfacet
  facet normal 0.000000 -0.382683 0.923880
    outer loop
      vertex 0.300000 0.283765 0.155230
      vertex 0.460000 0.250000 0.141244
      vertex 0.460000 0.283765 0.155230
    endloop
  endfacet
  facet normal 0.000000 -0.608761 0.793353
    outer loop
      vertex 0.300000 0.250000 0.141244
      vertex 0.300000 0.221005 0.118995
      vertex 0.460000 0.221005 0.118995
    endloop
  endfacet
  facet normal 0.000000 -0.608761 0.793353
    outer loop
      vertex 0.300000 0.250000 0.141244
      vertex 0.460000 0.221005 0.118995
      vertex 0.460000 0.250000 0.141244
    endloop
  endfacet
  facet normal 0.000000 -0.793353 0.608761
    outer loop
      vertex 0.300000 0.221005 0.118995
      vertex 0.300000 0.198756 0.090000
      vertex 0.460000 0.198756 0.090000
    endloop
  endfacet
  facet normal 0.000000 -0.793353 0.608761
    outer loop
      vertex 0.300000 0.221005 0.118995
      vertex 0.460000 0.198756 0.090000
      vertex 0.460000 0.221005 0.118995
    endloop
  endfacet
  facet normal 0.000000 -0.923880 0.382683
    outer loop
      vertex 0.300000 0.198756 0.090000
      vertex 0.300000 0.184770 0.056235
      vertex 0.460000 0.184770 0.056235
    endloop
  endfacet
  facet normal 0.000000 -0.923880 0.382683
    outer loop
      vertex 0.300000 0.198756 0.090000
      vertex 0.460000 0.184770 0.056235
      vertex 0.460000 0.198756 0.090000
    endloop
  endfacet
  facet normal 0.000000 -0.991445 0.130526
    outer loop
      vertex 0.300000 0.184770 0.056235
      vertex 0.300000 0.180000 0.020000
      vertex 0.460000 0.180000 0.020000
    endloop
  endfacet
  facet normal 0.000000 -0.991445 0.130526
    outer loop
      vertex 0.300000 0.184770 0.056235
      vertex 0.460000 0.180000 0.020000
      vertex 0.460000 0.184770 0.056235
    endloop
  endfacet
  facet normal 0.000000 -0.991445 -0.130526
    outer loop
      vertex 0.300000 0.180000 0.020000
      vertex 0.300000 0.184770 -0.016235
      vertex 0.460000 0.184770 -0.016235
    endloop
  endfacet
  facet normal 0.000000 -0.991445 -0.130526
    outer loop
      vertex 0.300000 0.180000 0.020000
      vertex 0.460000 0.184770 -0.016235
      vertex 0.460000 0.180000 0.020000
    endloop
  endfacet
  facet normal 0.000000 -0.923880 -0.382683
    outer loop
      vertex 0.300000 0.184770 -0.016235
      vertex 0.300000 0.198756 -0.050000
      vertex 0.460000 0.198756 -0.050000
    endloop
  endfacet
  facet normal 0.000000 -0.923880 -0.382683
    outer loop
      vertex 0.300000 0.184770 -0.016235
      vertex 0.460000 0.198756 -0.050000
      vertex 0.460000 0.184770 -0.016235
    endloop
  endfacet
  facet normal 0.000000 -0.793353 -0.608761
    outer loop
      vertex 0.300000 0.198756 -0.050000
      vertex 0.300000 0.221005 -0.078995
      vertex 0.460000 0.221005 -0.078995
    endloop
  endfacet
  facet normal 0.000000 -0.793353 -0.608761
    outer loop
      vertex 0.300000 0.198756 -0.050000
      vertex 0.460000 0.221005 -0.078995
      vertex 0.460000 0.198756 -0.050000
    endloop
  endfacet
  facet normal 0.000000 -0.608761 -0.793353
    outer loop
      vertex 0.300000 0.221005 -0.078995
      vertex 0.300000 0.250000 -0.101244
      vertex 0.460000 0.250000 -0.101244
    endloop
  endfacet
  facet normal 0.000000 -0.608761 -0.793353
    outer loop
      vertex 0.300000 0.221005 -0.078995
      vertex 0.460000 0.250000 -0.101244
      vertex 0.460000 0.221005 -0.078995
    endloop
  endfacet
  facet normal 0.000000 -0.382683 -0.923880
    outer loop
      vertex 0.300000 0.250000 -0.101244
      vertex 0.300000 0.283765 -0.115230
      vertex 0.460000 0.283765 -0.115230
    endloop
  endfacet
  facet normal 0.000000 -0.382683 -0.923880
    outer loop
      vertex 0.300000 0.250000 -0.101244
      vertex 0.460000 0.283765 -0.115230
      vertex 0.460000 0.250000 -0.101244
    endloop
  endfacet
  facet normal 0.000000 -0.130526 -0.991445
    outer loop
      vertex 0.300000 0.283765 -0.115230
      vertex 0.300000 0.320000 -0.120000
      vertex 0.460000 0.320000 -0.120000
    endloop
  endfacet
  facet normal 0.000000 -0.130526 -0.991445
    outer loop
      vertex 0.300000 0.283765 -0.115230
      vertex 0.460000 0.320000 -0.120000
      vertex 0.460000 0.283765 -0.115230
    endloop
  endfacet
  facet normal 0.000000 0.130526 -0.991445
    outer loop
      vertex 0.300000 0.320000 -0.120000
      vertex 0.300000 0.356235 -0.115230
      vertex 0.460000 0.356235 -0.115230
    endloop
  endfacet
  facet normal 0.000000 0.130526 -0.991445
    outer loop
      vertex 0.300000 0.320000 -0.120000
      vertex 0.460000 0.356235 -0.115230
      vertex 0.460000 0.320000 -0.120000
    endloop
  endfacet
  facet normal 0.000000 0.382683 -0.923880
    outer loop
      vertex 0.300000 0.356235 -0.115230
      vertex 0.300000 0.390000 -0.101244
      vertex 0.460000 0.390000 -0.101244
    endloop
  endfacet
  facet normal 0.000000 0.382683 -0.923880
    outer loop
      vertex 0.300000 0.356235 -0.115230
      vertex 0.460000 0.390000 -0.101244
      vertex 0.460000 0.356235 -0.115230
    endloop
  endfacet
  facet normal 0.000000 0.608761 -0.793353
    outer loop
      vertex 0.300000 0.390000 -0.101244
      vertex 0.300000 0.418995 -0.078995
      vertex 0.460000 0.418995 -0.078995
    endloop
  endfacet
  facet normal 0.000000 0.608761 -0.793353
    outer loop
      vertex 0.300000 0.390000 -0.101244
      vertex 0.460000 0.418995 -0.078995
      vertex 0.460000 0.390000 -0.101244
    endloop
  endfacet
  facet normal 0.000000 0.793353 -0.608761
    outer loop
      vertex 0.300000 0.418995 -0.078995
      vertex 0.300000 0.441244 -0.050000
      vertex 0.460000 0.441244 -0.050000
    endloop
  endfacet
  facet normal 0.000000 0.793353 -0.608761
    outer loop
      vertex 0.300000 0.418995 -0.078995
      vertex 0.460000 0.441244 -0.050000
      vertex 0.460000 0.418995 -0.078995
    endloop
  endfacet
  facet normal 0.000000 0.923880 -0.382683
    outer loop
      vertex 0.300000 0.441244 -0.050000
      vertex 0.300000 0.455230 -0.016235
      vertex 0.460000 0.455230 -0.016235
    endloop
  endfacet
  facet normal 0.000000 0.923880 -0.382683
    outer loop
      vertex 0.300000 0.441244 -0.050000
      vertex 0.460000 0.455230 -0.016235
      vertex 0.460000 0.441244 -0.050000
    endloop
  endfacet
  facet normal 0.000000 0.991445 -0.130526
    outer loop
      vertex 0.300000 0.455230 -0.016235
      vertex 0.300000 0.460000 0.020000
      vertex 0.460000 0.460000 0.020000
    endloop
  endfacet
  facet normal 0.000000 0.991445 -0.130526
    outer loop
      vertex 0.300000 0.455230 -0.016235
      vertex 0.460000 0.460000 0.020000
      vertex 0.460000 0.455230 -0.016235
    endloop
  endfacet
  facet normal 1.000000 0.000000 0.000000
    outer loop
      vertex 0.460000 0.320000 0.020000
      vertex 0.460000 0.460000 0.020000
      vertex 0.460000 0.455230 0.056235
    endloop
  endfacet
  facet normal 1.000000 0.000000 0.000000
    outer loop
      vertex 0.460000 0.320000 0.020000
      vertex 0.460000 0.455230 0.056235
      vertex 0.460000 0.441244 0.090000
    endloop
  endfacet
  facet normal 1.000000 0.000000 0.000000
    outer loop
      vertex 0.460000 0.320000 0.020000
      vertex 0.460000 0.441244 0.090000
      vertex 0.460000 0.418995 0.118995
    endloop
  endfacet
  facet normal 1.000000 0.000000 0.000000
    outer loop
      vertex 0.460000 0.320000 0.020000
      vertex 0.460000 0.418995 0.118995
      vertex 0.460000 0.390000 0.141244
    endloop
  endfacet
  facet normal 1.000000 0.000000 0.000000
    outer loop
      vertex 0.460000 0.320000 0.020000
      vertex 0.460000 0.390000 0.141244
      vertex 0.460000 0.356235 0.155230
    endloop
  endfacet
  facet normal 1.000000 0.000000 0.000000
    outer loop
      vertex 0.460000 0.320000 0.020000
      vertex 0.460000 0.356235 0.155230
      vertex 0.460000 0.320000 0.160000
    endloop
  endfacet
  facet normal 1.000000 0.000000 0.000000
    outer loop
      vertex 0.460000 0.320000 0.020000
      vertex 0.460000 0.320000 0.160000
      vertex 0.460000 0.283765 0.155230
    endloop
  endfacet
  facet normal 1.000000 0.000000 0.000000
    outer loop
      vertex 0.460000 0.320000 0.020000
      vertex 0.460000 0.283765 0.155230
      vertex 0.460000 0.250000 0.141244
    endloop
  endfacet
  facet normal 1.000000 0.000000 0.000000
    outer loop
      vertex 0.460000 0.320000 0.020000
      vertex 0.460000 0.250000 0.141244
      vertex 0.460000 0.221005 0.118995
    endloop
  endfacet
  facet normal 1.000000 0.000000 0.000000
    outer loop
      vertex 0.460000 0.320000 0.020000
      vertex 0.460000 0.221005 0.118995
      vertex 0.460000 0.198756 0.090000
    endloop
  endfacet
  facet normal 1.000000 0.000000 0.000000
    outer loop
      vertex 0.460000 0.320000 0.020000
      vertex 0.460000 0.198756 0.090000
      vertex 0.460000 0.184770 0.056235
    endloop
  endfacet
  facet normal 1.000000 0.000000 0.000000
    outer loop
      vertex 0.460000 0.320000 0.020000
      vertex 0.460000 0.184770 0.056235
      vertex 0.460000 0.180000 0.020000
    endloop
  endfacet
  facet normal 1.000000 0.000000 0.000000
    outer loop
      vertex 0.460000 0.320000 0.020000
      vertex 0.460000 0.180000 0.020000
      vertex 0.460000 0.184770 -0.016235
    endloop
  endfacet
  facet normal 1.000000 0.000000 0.000000
    outer loop
      vertex 0.460000 0.320000 0.020000
      vertex 0.460000 0.184770 -0.016235
      vertex 0.460000 0.198756 -0.050000
    endloop
  endfacet
  facet normal 1.000000 0.000000 0.000000
    outer loop
      vertex 0.460000 0.320000 0.020000
      vertex 0.460000 0.198756 -0.050000
      vertex 0.460000 0.221005 -0.078995
    endloop
  endfacet
  facet normal 1.000000 0.000000 0.000000
    outer loop
      vertex 0.460000 0.320000 0.020000
      vertex 0.460000 0.221005 -0.078995
      vertex 0.460000 0.250000 -0.101244
    endloop
  endfacet
  facet normal 1.000000 0.000000 0.000000
    outer loop
      vertex 0.460000 0.320000 0.020000
      vertex 0.460000 0.250000 -0.101244
      vertex 0.460000 0.283765 -0.115230
    endloop
  endfacet
  facet normal 1.000000 0.000000 0.000000
    outer loop
      vertex 0.460000 0.320000 0.020000
      vertex 0.460000 0.283765 -0.115230
      vertex 0.460000 0.320000 -0.120000
    endloop
  endfacet
  facet normal 1.000000 0.000000 0.000000
    outer loop
      vertex 0.460000 0.320000 0.020000
      vertex 0.460000 0.320000 -0.120000
      vertex 0.460000 0.356235 -0.115230
    endloop
  endfacet
  facet normal 1.000000 0.000000 0.000000
    outer loop
      vertex 0.460000 0.320000 0.020000
      vertex 0.460000 0.356235 -0.115230
      vertex 0.460000 0.390000 -0.101244
    endloop
  endfacet
  facet normal 1.000000 0.000000 0.000000
    outer loop
      vertex 0.460000 0.320000 0.020000
      vertex 0.460000 0.390000 -0.101244
      vertex 0.460000 0.418995 -0.078995
    endloop
  endfacet
  facet normal 1.000000 0.000000 0.000000
    outer loop
      vertex 0.460000 0.320000 0.020000
      vertex 0.460000 0.418995 -0.078995
      vertex 0.460000 0.441244 -0.050000
    endloop
  endfacet
  facet normal 1.000000 0.000000 0.000000
    outer loop
      vertex 0.460000 0.320000 0.020000
      vertex 0.460000 0.441244 -0.050000
      vertex 0.460000 0.455230 -0.016235
    endloop
  endfacet
  facet normal 1.000000 0.000000 0.000000
    outer loop
      vertex 0.460000 0.320000 0.020000
      vertex 0.460000 0.455230 -0.016235
      vertex 0.460000 0.460000 0.020000
    endloop
  endfacet
  facet normal -1.000000 0.000000 0.000000
    outer loop
      vertex 0.300000 0.320000 0.020000
      vertex 0.300000 0.455230 0.056235
      vertex 0.300000 0.460000 0.020000
    endloop
  endfacet
  facet normal -1.000000 0.000000 0.000000
    outer loop
      vertex 0.300000 0.320000 0.020000
      vertex 0.300000 0.441244 0.090000
      vertex 0.300000 0.455230 0.056235
    endloop
  endfacet
  facet normal -1.000000 0.000000 0.000000
    outer loop
      vertex 0.300000 0.320000 0.020000
      vertex 0.300000 0.418995 0.118995
      vertex 0.300000 0.441244 0.090000
    endloop
  endfacet
  facet normal -1.000000 0.000000 0.000000
    outer loop
      vertex 0.300000 0.320000 0.020000
      vertex 0.300000 0.390000 0.141244
      vertex 0.300000 0.418995 0.118995
    endloop
  endfacet
  facet normal -1.000000 0.000000 0.000000
    outer loop
      vertex 0.300000 0.320000 0.020000
      vertex 0.300000 0.356235 0.155230
      vertex 0.300000 0.390000 0.141244
    endloop
  endfacet
  facet normal -1.000000 0.000000 0.000000
    outer loop
      vertex 0.300000 0.320000 0.020000
      vertex 0.300000 0.320000 0.160000
      vertex 0.300000 0.356235 0.155230
    endloop
  endfacet
  facet normal -1.000000 0.000000 0.000000
    outer loop
      vertex 0.300000 0.320000 0.020000
      vertex 0.300000 0.283765 0.155230
      vertex 0.300000 0.320000 0.160000
    endloop
  endfacet
  facet normal -1.000000 0.000000 0.000000
    outer loop
      vertex 0.300000 0.320000 0.020000
      vertex 0.300000 0.250000 0.141244
      vertex 0.300000 0.283765 0.155230
    endloop
  endfacet
  facet normal -1.000000 0.000000 0.000000
    outer loop
      vertex 0.300000 0.320000 0.020000
      vertex 0.300000 0.221005 0.118995
      vertex 0.300000 0.250000 0.141244
    endloop
  endfacet
  facet normal -1.000000 0.000000 0.000000
    outer loop
      vertex 0.300000 0.320000 0.020000
      vertex 0.300000 0.198756 0.090000
      vertex 0.300000 0.221005 0.118995
    endloop
  endfacet
  facet normal -1.000000 0.000000 0.000000
    outer loop
      vertex 0.300000 0.320000 0.020000
      vertex 0.300000 0.184770 0.056235
      vertex 0.300000 0.198756 0.090000
    endloop
  endfacet
  facet normal -1.000000 0.000000 0.000000
    outer loop
      vertex 0.300000 0.320000 0.020000
      vertex 0.300000 0.180000 0.020000
      vertex 0.300000 0.184770 0.056235
    endloop
  endfacet
  facet normal -1.000000 0.000000 0.000000
    outer loop
      vertex 0.300000 0.320000 0.020000
      vertex 0.300000 0.184770 -0.016235
      vertex 0.300000 0.180000 0.020000
    endloop
  endfacet
  facet normal -1.000000 0.000000 0.000000
    outer loop
      vertex 0.300000 0.320000 0.020000
      vertex 0.300000 0.198756 -0.050000
      vertex 0.300000 0.184770 -0.016235
    endloop
  endfacet
  facet normal -1.000000 0.000000 0.000000
    outer loop
      vertex 0.300000 0.320000 0.020000
      vertex 0.300000 0.221005 -0.078995
      vertex 0.300000 0.198756 -0.050000
    endloop
  endfacet
  facet normal -1.000000 0.000000 0.000000
    outer loop
      vertex 0.300000 0.320000 0.020000
      vertex 0.300000 0.250000 -0.101244
      vertex 0.300000 0.221005 -0.078995
    endloop
  endfacet
  facet normal -1.000000 0.000000 0.000000
    outer loop
      vertex 0.300000 0.320000 0.020000
      vertex 0.300000 0.283765 -0.115230
      vertex 0.300000 0.250000 -0.101244
    endloop
  endfacet
  facet normal -1.000000 0.000000 0.000000
    outer loop
      vertex 0.300000 0.320000 0.020000
      vertex 0.300000 0.320000 -0.120000
      vertex 0.300000 0.283765 -0.115230
    endloop
  endfacet
  facet normal -1.000000 0.000000 0.000000
    outer loop
      vertex 0.300000 0.320000 0.020000
      vertex 0.300000 0.356235 -0.115230
      vertex 0.300000 0.320000 -0.120000
    endloop
  endfacet
  facet normal -1.000000 0.000000 0.000000
    outer loop
      vertex 0.300000 0.320000 0.020000
      vertex 0.300000 0.390000 -0.101244
      vertex 0.300000 0.356235 -0.115230
    endloop
  endfacet
  facet normal -1.000000 0.000000 0.000000
    outer loop
      vertex 0.300000 0.320000 0.020000
      vertex 0.300000 0.418995 -0.078995
      vertex 0.300000 0.390000 -0.101244
    endloop
  endfacet
  facet normal -1.000000 0.000000 0.000000
    outer loop
      vertex 0.300000 0.320000 0.020000
      vertex 0.300000 0.441244 -0.050000
      vertex 0.300000 0.418995 -0.078995
    endloop
  endfacet
  facet normal -1.000000 0.000000 0.000000
    outer loop
      vertex 0.300000 0.320000 0.020000
      vertex 0.300000 0.455230 -0.016235
      vertex 0.300000 0.441244 -0.050000
    endloop
  endfacet
  facet normal -1.000000 0.000000 0.000000
    outer loop
      vertex 0.300000 0.320000 0.020000
      vertex 0.300000 0.460000 0.020000
      vertex 0.300000 0.455230 -0.016235
    endloop
  endfacet
endsolid color_sample_car_demo
